<svg width="93" height="35" viewBox="0 0 93 35" fill="none" xmlns="http://www.w3.org/2000/svg">
<g clip-path="url(#clip0)">
<path fill-rule="evenodd" clip-rule="evenodd" d="M16.4561 19.0089C7.14083 11.0891 0.11845 17.5712 0 27.0127C6.42167 19.9673 12.4203 23.4144 16.4561 19.0089ZM17.0314 20.5474C15.8638 34.7812 6.88701 23.2294 0.355349 28.215C3.99345 23.0024 10.9312 24.6839 17.0314 20.5474Z" fill="#00728F"/>
<path fill-rule="evenodd" clip-rule="evenodd" d="M18.5118 21.9599C17.0227 25.3649 17.9111 28.2991 21.49 30.2076C23.8082 31.4435 26.2364 32.8223 28.5208 34.6635C24.6289 30.8633 23.6644 24.356 18.5118 21.9599ZM19.9755 21.363C28.0555 20.6147 33.6649 27.4331 30.4753 34.9998C25.8472 31.2669 25.7711 24.6082 19.9755 21.363Z" fill="#00728F"/>
<path fill-rule="evenodd" clip-rule="evenodd" d="M17.0564 17.479C17.361 14.0319 16.0919 11.2323 14.0951 8.71006C12.6737 6.91088 12.2169 4.01874 12.733 0C7.58887 6.90247 9.72943 13.4434 17.0564 17.479ZM13.2575 0.697814C14.8989 4.46433 17.1072 7.60029 19.7554 10.2234C21.2529 11.6947 20.4745 14.0404 18.7908 17.0166C18.9093 10.9885 12.0477 7.32284 13.2575 0.697814Z" fill="#00728F"/>
<path d="M32.2438 18.959V18.4882C31.6346 18.4125 31.2624 18.1771 30.907 17.412C30.5348 16.5797 30.2471 15.781 30.044 15.3522C29.6125 14.4106 29.0795 14.0491 28.3604 13.8641V13.8221C28.5634 13.696 29.1641 13.2756 29.6125 12.2751C30.2048 10.9552 30.4501 10.7114 30.9663 10.7114H31.2285C31.4739 10.7114 31.7785 10.5432 31.7785 10.2237C31.7785 9.83698 31.4739 9.55113 30.9747 9.55113C30.3232 9.56794 29.9087 9.97991 29.5026 10.972C29.0457 12.1154 28.7834 12.6619 28.3942 13.0906C27.9627 13.5362 27.4889 13.696 26.8713 13.696V11.6866C26.8713 10.4255 26.9728 10.3246 27.9204 10.2405V9.76972H23.9862V10.2405C24.9507 10.3246 25.0522 10.4255 25.0522 11.6866V17.0253C25.0522 18.3032 24.9507 18.3957 23.9862 18.4882V18.959H27.9204V18.4882C26.9728 18.4041 26.8713 18.3032 26.8713 17.0169V14.2088C27.5735 14.192 27.9119 14.5535 28.2673 15.6549C28.538 16.4872 28.7834 17.2607 28.9611 17.6559C29.3249 18.5302 29.7141 18.959 30.704 18.959H32.2438ZM32.9884 9.76972V10.2405C33.8852 10.3414 33.9783 10.4591 33.9783 11.6278V17.1514C33.9783 18.3285 33.8767 18.4377 32.9122 18.5386V18.9506H37.0072V18.5386C35.8819 18.4377 35.7973 18.32 35.7973 17.1514V15.1336L36.6349 15.3606C36.7957 15.3606 36.9395 15.3606 37.1426 15.3354C38.657 15.1505 39.9684 14.2593 39.9684 12.4012C39.9684 11.4428 39.5792 10.7282 38.9278 10.2994C38.3694 9.92946 37.6587 9.76972 36.5503 9.76972H32.9884ZM35.7973 10.8711C35.7973 10.6441 35.8227 10.4844 35.9411 10.4171C36.0258 10.3414 36.1611 10.291 36.398 10.291C37.151 10.291 37.9802 10.7954 37.9802 12.4685C37.9802 14.4022 36.8887 14.7301 36.4657 14.7301C36.195 14.7301 35.975 14.6712 35.7889 14.604V10.8711H35.7973ZM49.9774 18.959V18.4882C48.9875 18.4041 48.886 18.2696 48.886 17.0169V11.653C48.886 10.4507 49.0045 10.333 49.9944 10.2489V9.77813H46.9147V9.94628C46.9147 10.0724 46.8893 10.2153 46.7878 10.4003L43.7334 17.4457H43.7081C43.7842 15.8399 43.7842 15.0243 43.7842 14.4106V11.7371C43.7842 10.4591 43.9027 10.333 44.8503 10.2489V9.77813H40.8568V10.2489C41.8636 10.333 41.9821 10.4759 41.9821 11.7539V16.9917C41.9821 18.278 41.8806 18.4125 40.8737 18.4966V18.9674H43.9704V18.7993C43.9704 18.6311 43.9703 18.4546 44.0719 18.2276L47.1093 11.1569H47.1516C47.0923 12.6703 47.0923 13.3933 47.0923 13.8473V17.0253C47.0923 18.2864 46.9908 18.4125 46.0432 18.4966V18.9674H49.9774V18.959ZM58.1589 16.5125C57.5413 17.7904 56.8222 18.5555 55.7984 18.5555C54.2416 18.5555 53.0741 16.7815 53.0741 14.2172C53.0741 12.0818 54.0978 10.1481 55.7223 10.1481C56.6699 10.1481 57.4906 10.6357 57.939 12.1826L58.4297 12.0818C58.3535 11.3083 58.2859 10.6609 58.1843 9.87902C57.7951 9.79494 56.9152 9.57635 56.0099 9.57635C52.9387 9.57635 50.9843 11.5941 50.9843 14.5031C50.9843 16.7395 52.2788 19.144 55.6546 19.144C56.5514 19.144 57.6175 18.9002 57.9728 18.7993C58.1928 18.3116 58.4804 17.3112 58.6497 16.6806L58.1589 16.5125ZM66.645 12.0145C66.5858 11.1401 66.5181 9.99672 66.5012 9.4082H66.1543C65.9343 9.67724 65.7482 9.76972 65.4182 9.76972H60.4349C60.0457 9.76972 59.8849 9.69405 59.6734 9.4082H59.3265C59.3096 10.1228 59.225 11.1149 59.1658 12.0565H59.6565C59.8172 11.426 59.9611 10.9552 60.1641 10.7114C60.3841 10.4423 60.6802 10.3414 61.4755 10.3414H61.9916V17.1094C61.9916 18.2864 61.8732 18.3957 60.7987 18.4798V18.9506H65.0629V18.4798C63.9376 18.3957 63.8276 18.278 63.8276 17.1094V10.3414H64.4791C65.0544 10.3414 65.4182 10.4171 65.6467 10.6525C65.8666 10.8963 66.0105 11.3251 66.1797 12.0397L66.645 12.0145ZM75.8503 18.959V18.4882C75.055 18.4041 74.8857 18.2444 74.4373 16.9749C73.5574 14.5115 72.779 12.0649 71.933 9.58476L71.2561 9.7445L68.5487 17.1598C68.1595 18.2444 67.9395 18.4041 67.1188 18.4882V18.959H70.097V18.4882C69.1325 18.3621 69.0732 18.1855 69.2932 17.4289C69.454 16.874 69.6063 16.3948 69.7247 16.0416H72.1868C72.356 16.5125 72.5337 17.0842 72.6606 17.5129C72.889 18.2108 72.8213 18.3873 72.0514 18.4882V18.959H75.8503ZM71.9583 15.3102H69.9447C70.2916 14.2761 70.5793 13.2672 70.9515 12.2079H70.9938L71.9583 15.3102ZM84.2771 18.959V18.4882C83.3126 18.4041 83.2111 18.2696 83.2111 17.0001V11.4596C83.2111 10.4255 83.3126 10.3246 84.2771 10.2405V9.76972H77.1617V10.2405C78.1685 10.3162 78.3969 10.4675 78.3969 11.0729C78.3969 13.5783 78.0839 15.6213 77.5509 16.9412C77.2463 17.6895 76.8994 18.2696 76.2564 18.7572V19.0599C76.4256 19.1356 76.7471 19.186 77.094 19.186C77.424 19.186 77.7032 18.9674 77.9739 18.4798C78.7946 17.0758 79.1584 14.1584 79.1584 10.8627C79.1584 10.4339 79.2176 10.333 79.666 10.333H80.9352C81.3666 10.333 81.3836 10.3919 81.3836 11.0476V16.9917C81.3836 18.2696 81.282 18.3957 80.3175 18.4798V18.9506H84.2771V18.959ZM93.0001 18.959V18.4882C92.0356 18.4041 91.9341 18.2696 91.9341 17.0001V11.4596C91.9341 10.4255 92.0356 10.3246 93.0001 10.2405V9.76972H85.8847V10.2405C86.8915 10.3162 87.1199 10.4675 87.1199 11.0729C87.1199 13.5783 86.8069 15.6213 86.2738 16.9412C85.9693 17.6895 85.6224 18.2696 84.9794 18.7572V19.0599C85.1486 19.1356 85.4701 19.186 85.817 19.186C86.1469 19.186 86.4261 18.9674 86.6969 18.4798C87.5176 17.0758 87.8814 14.1584 87.8814 10.8627C87.8814 10.4339 87.9406 10.333 88.389 10.333H89.6581C90.0896 10.333 90.1065 10.3919 90.1065 11.0476V16.9917C90.1065 18.2696 90.005 18.3957 89.0405 18.4798V18.9506H93.0001V18.959Z" fill="#00728F"/>
<path d="M27.6668 3.99393C27.633 3.64082 27.6076 3.0523 27.5991 2.90938H24.5025V3.13638C24.9932 3.17841 25.044 3.23726 25.044 3.90986V6.60863C25.044 7.20556 24.9932 7.26441 24.5025 7.30645V7.54185H26.5923V7.30645C26.017 7.26441 25.9747 7.20556 25.9747 6.60863V3.43904C25.9747 3.19523 25.9747 3.19523 26.2285 3.19523H26.5838C26.9392 3.19523 27.0746 3.25408 27.1845 3.43063C27.2776 3.57356 27.3284 3.75852 27.4214 4.01915L27.6668 3.99393ZM28.0983 2.90938V3.14478C28.5467 3.19523 28.5975 3.25408 28.5975 3.8426V6.63385C28.5975 7.22237 28.5467 7.28122 28.056 7.33167V7.54185H30.1204V7.34008C29.5535 7.28963 29.5112 7.23078 29.5112 6.64226V5.61656L29.9343 5.73426C30.0104 5.73426 30.0866 5.73426 30.1881 5.71745C30.9496 5.62497 31.6095 5.17937 31.6095 4.23775C31.6095 3.75012 31.4149 3.3886 31.0849 3.17841C30.8142 2.98504 30.4588 2.90938 29.9004 2.90938H28.0983ZM29.5197 3.46426C29.5197 3.34656 29.5366 3.27089 29.5958 3.23726C29.6381 3.20363 29.7058 3.17001 29.8327 3.17001C30.2135 3.17001 30.6365 3.42223 30.6365 4.27137C30.6365 5.24663 30.0866 5.41478 29.875 5.41478C29.7397 5.41478 29.6297 5.38956 29.5366 5.34752V3.46426H29.5197ZM36.1106 2.90938H34.6384V3.14478L34.9007 3.20363C35.1122 3.25408 35.1291 3.33815 35.0276 3.64082C34.8161 4.33023 34.5877 4.90193 34.3508 5.5493L33.5131 3.53152C33.4285 3.32975 33.437 3.24567 33.5808 3.20363L33.8093 3.14478V2.90938H31.8718V3.14478C32.3117 3.21204 32.3794 3.29612 32.5063 3.57356C32.684 3.93508 33.4793 5.74267 33.6485 6.121C33.7585 6.37322 33.8093 6.53297 33.8093 6.65908C33.8093 6.92811 33.6147 7.15511 33.4455 7.15511C33.3439 7.15511 33.217 7.09626 33.1155 7.029C32.9547 6.93652 32.8278 6.92811 32.7178 7.00378C32.6248 7.05422 32.5486 7.17193 32.5486 7.30645C32.5402 7.55867 32.8109 7.72682 33.0732 7.72682C33.4455 7.72682 33.8347 7.54185 34.2492 6.55819C34.4861 6.02011 35.1038 4.42271 35.3491 3.83419C35.5606 3.32975 35.6368 3.22886 36.1106 3.14478V2.90938ZM40.8232 7.55026V7.30645C40.3325 7.26441 40.2732 7.20556 40.2732 6.54137V3.90145C40.2732 3.24567 40.3325 3.18682 40.8317 3.14478V2.90938H36.3306V3.14478C36.8551 3.18682 36.9059 3.24567 36.9059 3.89304V6.54137C36.9059 7.20556 36.8551 7.26441 36.3559 7.30645V7.54185H38.3357V7.30645C37.8958 7.26441 37.845 7.20556 37.845 6.54137V3.46426C37.845 3.21204 37.8619 3.19523 38.1073 3.19523H39.0972C39.3426 3.19523 39.351 3.20363 39.351 3.48108V6.54137C39.351 7.20556 39.3003 7.26441 38.8434 7.30645V7.54185H40.8232V7.55026ZM45.7812 7.55026V7.30645C45.2904 7.26441 45.2312 7.20556 45.2312 6.54137V3.90145C45.2312 3.24567 45.2904 3.18682 45.7896 3.14478V2.90938H41.2885V3.14478C41.8131 3.18682 41.8639 3.24567 41.8639 3.89304V6.54137C41.8639 7.20556 41.8131 7.26441 41.3139 7.30645V7.54185H43.2937V7.30645C42.8538 7.26441 42.803 7.20556 42.803 6.54137V3.46426C42.803 3.21204 42.8199 3.19523 43.0653 3.19523H44.0552C44.3005 3.19523 44.309 3.20363 44.309 3.48108V6.54137C44.309 7.20556 44.2582 7.26441 43.8014 7.30645V7.54185H45.7812V7.55026ZM50.5192 7.55026V7.30645C50.1215 7.26441 50.0284 7.18034 49.8085 6.54137C49.3685 5.29708 48.9708 4.06119 48.5393 2.81689L48.2009 2.89256L46.8303 6.63385C46.6357 7.18034 46.5257 7.26441 46.1111 7.30645V7.54185H47.6171V7.30645C47.1264 7.23919 47.101 7.15511 47.211 6.76837C47.2872 6.48252 47.3718 6.24711 47.431 6.07056H48.6747C48.7593 6.30597 48.8524 6.60022 48.9116 6.81882C49.0301 7.17193 48.9878 7.256 48.607 7.30645V7.54185H50.5192V7.55026ZM48.5563 5.70063H47.541C47.7187 5.17937 47.8625 4.66652 48.0486 4.13686H48.074L48.5563 5.70063Z" fill="#00728F"/>
</g>
<defs>
<clipPath id="clip0">
<rect width="93" height="35" fill="white"/>
</clipPath>
</defs>
</svg>
