<svg width="14" height="14" viewBox="0 0 14 14" fill="none" xmlns="http://www.w3.org/2000/svg">
<path d="M7.01973 0.0522461C3.22065 0.0522461 0.112305 3.15458 0.112305 6.94631C0.112305 10.7381 3.22065 13.8404 7.01973 13.8404C10.8188 13.8404 13.9272 10.7381 13.9272 6.94631C13.9272 3.15458 10.8188 0.0522461 7.01973 0.0522461ZM7.01973 2.12047C8.19399 2.12047 9.09196 3.0167 9.09196 4.18869C9.09196 5.36068 8.19399 6.25691 7.01973 6.25691C5.84547 6.25691 4.9475 5.36068 4.9475 4.18869C4.9475 3.0167 5.84547 2.12047 7.01973 2.12047ZM7.01973 11.91C5.29287 11.91 3.77324 11.0138 2.87528 9.70394C2.87528 8.32513 5.63825 7.56678 7.01973 7.56678C8.40122 7.56678 11.1642 8.32513 11.1642 9.70394C10.2662 11.0138 8.74659 11.91 7.01973 11.91Z" fill="#2F3131"/>
</svg>
